<?xml version="1.0" encoding="UTF-8" standalone="no"?>
<!-- Created with Inkscape (http://www.inkscape.org/) -->

<svg
   xmlns:dc="http://purl.org/dc/elements/1.1/"
   xmlns:cc="http://creativecommons.org/ns#"
   xmlns:rdf="http://www.w3.org/1999/02/22-rdf-syntax-ns#"
   xmlns:svg="http://www.w3.org/2000/svg"
   xmlns="http://www.w3.org/2000/svg"
   xmlns:xlink="http://www.w3.org/1999/xlink"
   xmlns:sodipodi="http://sodipodi.sourceforge.net/DTD/sodipodi-0.dtd"
   xmlns:inkscape="http://www.inkscape.org/namespaces/inkscape"
   width="1080"
   height="680"
   id="svg5766"
   version="1.1"
   inkscape:version="0.48.2 r9819"
   sodipodi:docname="background1080x680.svg"
   inkscape:export-filename="/Users/aaron/416/project3/images/background1080x680.png"
   inkscape:export-xdpi="90"
   inkscape:export-ydpi="90">
  <defs
     id="defs5768">
    <inkscape:path-effect
       effect="spiro"
       id="path-effect5397"
       is_visible="true" />
    <linearGradient
       inkscape:collect="always"
       id="linearGradient3798">
      <stop
         style="stop-color:#002272;stop-opacity:1"
         offset="0"
         id="stop3800" />
      <stop
         style="stop-color:#002255;stop-opacity:0;"
         offset="1"
         id="stop3802" />
    </linearGradient>
    <linearGradient
       id="linearGradient6296">
      <stop
         style="stop-color:#0055d4;stop-opacity:1;"
         offset="0"
         id="stop6298" />
      <stop
         style="stop-color:#0055d4;stop-opacity:0;"
         offset="1"
         id="stop6300" />
    </linearGradient>
    <linearGradient
       inkscape:collect="always"
       xlink:href="#linearGradient6296"
       id="linearGradient6302"
       x1="500"
       y1="372.36218"
       x2="499.59857"
       y2="1013.0659"
       gradientUnits="userSpaceOnUse"
       gradientTransform="matrix(0.99930839,0,0,0.99890165,0.74694824,0.40901738)" />
    <linearGradient
       inkscape:collect="always"
       xlink:href="#linearGradient6296"
       id="linearGradient3762"
       x1="799.80621"
       y1="772.80194"
       x2="779.79236"
       y2="392.38412"
       gradientUnits="userSpaceOnUse"
       gradientTransform="matrix(0.99930839,0,0,0.99890165,0.74694824,0.40901738)" />
    <linearGradient
       inkscape:collect="always"
       xlink:href="#linearGradient3798"
       id="linearGradient3804"
       x1="519.98608"
       y1="259.91174"
       x2="520"
       y2="560"
       gradientUnits="userSpaceOnUse"
       gradientTransform="translate(0,372.36217)" />
    <filter
       inkscape:collect="always"
       id="filter8558"
       x="-0.010512398"
       width="1.0210248"
       y="-0.31176323"
       height="1.6235265">
      <feGaussianBlur
         inkscape:collect="always"
         stdDeviation="4.7305793"
         id="feGaussianBlur8560" />
    </filter>
    <filter
       inkscape:collect="always"
       id="filter8602"
       x="-0.050560273"
       width="1.1011205"
       y="-0.29771822"
       height="1.5954364">
      <feGaussianBlur
         inkscape:collect="always"
         stdDeviation="1.2662132"
         id="feGaussianBlur8604" />
    </filter>
    <filter
       inkscape:collect="always"
       id="filter8616">
      <feGaussianBlur
         inkscape:collect="always"
         stdDeviation="0.97753892"
         id="feGaussianBlur8618" />
    </filter>
    <filter
       inkscape:collect="always"
       id="filter8622"
       x="-0.10041376"
       width="1.2008275"
       y="-0.14000396"
       height="1.2800079">
      <feGaussianBlur
         inkscape:collect="always"
         stdDeviation="1.7116857"
         id="feGaussianBlur8624" />
    </filter>
    <filter
       inkscape:collect="always"
       id="filter8640"
       x="-0.38139361"
       width="1.7627872"
       y="-0.13528844"
       height="1.2705769">
      <feGaussianBlur
         inkscape:collect="always"
         stdDeviation="1.8571048"
         id="feGaussianBlur8642" />
    </filter>
    <filter
       inkscape:collect="always"
       id="filter3849"
       x="-0.2719032"
       width="1.5438064"
       y="-0.5438064"
       height="2.0876128">
      <feGaussianBlur
         inkscape:collect="always"
         stdDeviation="38.51962"
         id="feGaussianBlur3851" />
    </filter>
    <filter
       inkscape:collect="always"
       id="filter3905"
       x="-0.02305525"
       width="1.0461105"
       y="-0.11682919"
       height="1.2336584">
      <feGaussianBlur
         inkscape:collect="always"
         stdDeviation="1.7874858"
         id="feGaussianBlur3907" />
    </filter>
    <filter
       inkscape:collect="always"
       id="filter3921"
       x="-0.10778469"
       width="1.2155694"
       y="-0.43651503"
       height="1.8730301">
      <feGaussianBlur
         inkscape:collect="always"
         stdDeviation="13.590572"
         id="feGaussianBlur3923" />
    </filter>
    <filter
       inkscape:collect="always"
       id="filter3929"
       x="-0.46742619"
       width="1.9348524"
       y="-0.93485238"
       height="2.8697048">
      <feGaussianBlur
         inkscape:collect="always"
         stdDeviation="66.218711"
         id="feGaussianBlur3931" />
    </filter>
    <filter
       inkscape:collect="always"
       id="filter4339"
       x="-0.016603568"
       width="1.0332071"
       y="-0.18770398"
       height="1.375408">
      <feGaussianBlur
         inkscape:collect="always"
         stdDeviation="7.4716056"
         id="feGaussianBlur4341" />
    </filter>
    <filter
       inkscape:collect="always"
       id="filter5419"
       x="-0.027329373"
       width="1.0546587"
       y="-0.27658802"
       height="1.553176">
      <feGaussianBlur
         inkscape:collect="always"
         stdDeviation="12.298218"
         id="feGaussianBlur5421" />
    </filter>
  </defs>
  <sodipodi:namedview
     id="base"
     pagecolor="#ffffff"
     bordercolor="#666666"
     borderopacity="1.0"
     inkscape:pageopacity="0.0"
     inkscape:pageshadow="2"
     inkscape:zoom="0.98994949"
     inkscape:cx="520.70168"
     inkscape:cy="247.02335"
     inkscape:document-units="px"
     inkscape:current-layer="layer1"
     showgrid="true"
     showguides="false"
     inkscape:snap-global="true"
     inkscape:window-width="1920"
     inkscape:window-height="955"
     inkscape:window-x="133"
     inkscape:window-y="32"
     inkscape:window-maximized="0">
    <inkscape:grid
       type="xygrid"
       id="grid5776"
       empspacing="5"
       visible="true"
       enabled="true"
       snapvisiblegridlinesonly="true" />
  </sodipodi:namedview>
  <metadata
     id="metadata5771">
    <rdf:RDF>
      <cc:Work
         rdf:about="">
        <dc:format>image/svg+xml</dc:format>
        <dc:type
           rdf:resource="http://purl.org/dc/dcmitype/StillImage" />
        <dc:title></dc:title>
      </cc:Work>
    </rdf:RDF>
  </metadata>
  <g
     inkscape:label="Layer 1"
     inkscape:groupmode="layer"
     id="layer1"
     transform="translate(0,-372.36218)">
    <path
       style="fill:#cccccc;stroke:none;filter:url(#filter5419)"
       d="m 0,420 c 31.961559,-34.43893 74.289694,-59.13035 120,-70 68.3656,-16.25696 139.75164,-1.81983 210,0 67.73426,1.7547 135.76154,-8.44939 200,-30 63.31965,-13.55218 130.89,-6.43952 190,20 17.96324,8.03484 35.12601,17.7795 53.13866,25.70296 C 791.15131,373.62641 810.3231,379.76299 830,380 c 26.04961,0.31377 50.99976,-9.64183 75.08471,-19.57138 C 929.16966,350.49908 953.94992,340.27252 980,340 c 23.1089,-0.24175 46.2207,7.72991 64.2666,22.1667 18.046,14.43679 30.8966,35.23499 35.7334,57.8333"
       id="path5395"
       inkscape:path-effect="#path-effect5397"
       inkscape:original-d="m 0,420 c 0,0 50.523522,-60.82775 120,-70 73.89442,-9.7555 137.83602,18.6525 210,0 45.86814,-11.85571 153.01282,-36.05388 200,-30 144.94526,127.30696 56.16566,45.79472 190,20 51.72448,-6.84111 58.09373,34.71216 110,40 51.4808,5.2445 99.35819,-50.63886 150,-40 41.7756,8.77624 100,80 100,80"
       inkscape:connector-curvature="0"
       transform="matrix(0.90237112,0,0,1.7,60,158.36218)"
       sodipodi:nodetypes="cssccssc" />
    <path
       style="fill:#808000;stroke:none;filter:url(#filter4339)"
       d="m 10,1002.3622 c 62.722259,-25.47059 118.02961,-96.88562 180,-90.00002 90,10 110,-10 190,-40 93.16639,-34.9374 270.5869,16.8623 370,50 40.45877,13.48626 89.32002,31.33809 150,30 72.92951,-1.60821 129.3039,32.89383 190,50.00002"
       id="path4337"
       inkscape:connector-curvature="0"
       sodipodi:nodetypes="cssssc" />
    <path
       style="fill:#445500;stroke:none;filter:url(#filter8558)"
       d="m -58.75603,687.91228 c 151.578941,-63.54437 1061.05263,-63.54437 1212.63153,0"
       id="path7914"
       inkscape:connector-curvature="0"
       sodipodi:nodetypes="cc"
       transform="matrix(1.0555556,0,0,1.8884444,-37.979743,-226.72191)"
       inkscape:export-xdpi="90"
       inkscape:export-ydpi="90" />
    <path
       style="fill:#0055d4;stroke:none;filter:url(#filter3921)"
       d="m 230,1082.3622 c -35.52443,-13.5326 12.42213,-10.9833 40,-40 11.98684,-12.6122 52.59049,-15.1747 70,-30 18.18045,-15.48183 20.05958,11.3238 40,20 14.84355,6.4585 57.18235,-9.7629 60,0 10.44456,36.1894 68.37521,21.7976 80,40"
       id="path7918"
       inkscape:connector-curvature="0"
       sodipodi:nodetypes="cssssc" />
    <path
       style="fill:none;stroke:#0055d4;stroke-width:1.35900521000000007;stroke-linecap:butt;stroke-linejoin:miter;stroke-miterlimit:4;stroke-opacity:1;stroke-dasharray:none;filter:url(#filter3905)"
       d="m 480.32753,1045.2911 c 0.67344,-0.1683 1.85195,-1.1785 2.02031,-0.5051 0.16836,0.6735 -2.33075,1.126 -2.02031,0.5051 -1.34295,-6.2584 2.23186,-0.7166 3.03046,-1.5152 0.11905,-0.1191 -0.11905,-0.386 0,-0.5051 0.11905,-0.119 0.38603,0.1191 0.50508,0 0.11904,-0.119 -0.11905,-0.386 0,-0.5051 0.2662,-0.2662 0.74395,-0.2388 1.01015,-0.505 0.11905,-0.1191 -0.11905,-0.3861 0,-0.5051 0.42923,-0.4292 1.086,-0.5809 1.51523,-1.0102 0.2662,-0.2662 0.23888,-0.7439 0.50507,-1.0101 0.2662,-0.2662 0.69692,-0.2963 1.01016,-0.5051 0.1981,-0.1321 0.2792,-0.4298 0.50507,-0.5051 0.31944,-0.1065 0.70899,0.1506 1.01016,0 0.15058,-0.075 -0.11905,-0.386 0,-0.5051 0.11904,-0.119 0.35449,0.075 0.50507,0 2.10201,-1.051 -0.53994,0.035 0.50508,-1.0101 0.11905,-0.1191 0.35449,0.075 0.50507,0 0.21296,-0.1065 0.29212,-0.3986 0.50508,-0.5051 0.15059,-0.075 0.35449,0.075 0.50508,0 0.42591,-0.2129 0.58423,-0.7972 1.01015,-1.0101 0.27622,-0.1381 1.1715,0.086 1.51523,0 0.5165,-0.1292 0.99873,-0.376 1.51523,-0.5051 0.32666,-0.082 0.67343,0 1.01015,0 0.67343,0 1.34687,0 2.0203,0 0.33672,0 0.67344,0 1.01016,0 0.33671,0 0.69071,-0.1065 1.01015,0 0.22588,0.075 0.27409,0.4473 0.50508,0.5051 0.48999,0.1225 1.01015,0 1.51522,0 0.16836,0 0.3545,-0.075 0.50508,0 0.77356,0.3867 0.39498,0.9 1.01015,1.5152 0.11905,0.119 0.38603,-0.1191 0.50508,0 0.11905,0.119 -0.11905,0.386 0,0.5051 0.11905,0.119 0.38603,-0.1191 0.50508,0 0.11904,0.119 -0.11905,0.386 0,0.505 0.11904,0.1191 0.35449,-0.075 0.50507,0 2.31154,1.1558 -2.14325,-0.2093 1.51523,1.0102 0.15972,0.053 0.38603,-0.119 0.50508,0 0.11905,0.119 -0.11905,0.386 0,0.5051 0.33684,0.3368 0.67331,-0.3369 1.01015,0 1.04502,1.045 -1.59693,-0.041 0.50508,1.0101 0.30117,0.1506 0.69071,-0.1064 1.01015,0 0.35714,0.1191 0.64493,0.4138 1.01015,0.5051 0.39405,0.098 2.44095,0 3.03046,0 0.33672,0 0.69071,-0.1065 1.01015,0 0.22588,0.075 0.29212,0.3986 0.50508,0.5051 0.15356,0.077 1.67154,0 2.0203,0 1.51523,0 3.03046,0 4.54569,0 1.85195,0 3.70389,0 5.55584,0 0.16836,0 0.33672,0 0.50507,0 0.16836,0 0.38603,0.119 0.50508,0 0.11905,-0.1191 -0.11905,-0.386 0,-0.5051 4.8e-4,-5e-4 1.51294,8e-4 1.51523,0 0.22588,-0.075 0.33672,-0.3367 0.50508,-0.5051 0.33671,0 0.69071,0.1065 1.01015,0 0.45175,-0.1506 0.54818,-0.8946 1.01015,-1.0101 0.49,-0.1225 1.03607,0.1597 1.51523,0 0.15972,-0.053 -0.11905,-0.3861 0,-0.5051 0.11905,-0.119 0.35449,0.075 0.50508,0 0.21295,-0.1065 0.29211,-0.3986 0.50507,-0.5051 0.15059,-0.075 0.35449,0.075 0.50508,0 0.42592,-0.2129 0.5584,-0.8595 1.01015,-1.0101 0.31944,-0.1065 0.67344,0 1.01015,0 0.16836,0 0.3545,0.075 0.50508,0 0.21296,-0.1065 0.29212,-0.3986 0.50508,-0.5051 0.69668,-0.3483 0.45177,0.6117 1.01015,-0.5051 0.0753,-0.1506 -0.11905,-0.386 0,-0.5051 0.0784,-0.078 1.31869,0.066 1.51523,0 3.65848,-1.2194 -0.79631,0.1457 1.51523,-1.0101 1.78885,-0.8944 -1.61527,1.5652 1.51523,0 0.15058,-0.075 -0.11905,-0.386 0,-0.5051 0.11904,-0.119 0.35449,0.075 0.50507,0 0.21296,-0.1065 0.29212,-0.3986 0.50508,-0.5051 0.22507,-0.1125 1.84022,0.036 2.0203,0 0.52206,-0.1044 0.99873,-0.3759 1.51523,-0.505 0.32667,-0.082 0.70898,0.1505 1.01015,0 0.21296,-0.1065 0.27409,-0.4474 0.50508,-0.5051 0.49,-0.1225 1.02523,0.1225 1.51523,0 0.23099,-0.058 0.29212,-0.3986 0.50508,-0.5051 0.30116,-0.1506 0.70898,0.1506 1.01015,0 0.21296,-0.1065 0.29212,-0.3986 0.50507,-0.5051 0.26782,-0.1339 2.18178,0.1146 2.52539,0 0.45175,-0.1506 0.58423,-0.7972 1.01015,-1.0101 0.15058,-0.075 0.33672,0 0.50507,0 0.16836,0 0.33672,0 0.50508,0 0.67344,0 1.34687,0 2.02031,0 2.86209,0 5.72419,0 8.58629,0 1.34687,0 2.69374,0 4.04061,0 0.40661,0 1.70329,-0.1057 2.02031,0 0.35714,0.119 0.65301,0.386 1.01015,0.5051 0.40654,0.1355 1.69755,-0.1614 2.02031,0 0.21295,0.1064 0.29211,0.3986 0.50507,0.505 0.40406,0.2021 1.11117,-0.202 1.51523,0 2.10201,1.051 -0.53994,-0.035 0.50508,1.0102 4.8e-4,5e-4 1.51294,-8e-4 1.51523,0 0.22587,0.075 0.29211,0.3986 0.50507,0.5051 0.15059,0.075 0.34536,-0.053 0.50508,0 0.35714,0.119 0.65301,0.386 1.01015,0.505 0.15972,0.053 0.35449,-0.075 0.50508,0 0.21296,0.1065 0.29211,0.3986 0.50507,0.5051 0.47619,0.2381 1.03904,0.267 1.51523,0.5051 0.21296,0.1065 0.29212,0.3986 0.50508,0.5051 0.15058,0.075 0.38603,-0.1191 0.50507,0 0.11905,0.119 -0.11904,0.386 0,0.505 0.25254,0.2526 1.2627,-0.2525 1.51523,0 0.11905,0.1191 -0.11904,0.3861 0,0.5051 0.2381,0.2381 0.70899,-0.1506 1.01016,0 0.42591,0.213 0.61393,0.746 1.01015,1.0102 0.31323,0.2088 0.74395,0.2389 1.01015,0.505 0.11905,0.1191 -0.11905,0.3861 0,0.5051 0.2662,0.2662 0.69692,0.2963 1.01015,0.5051 0.19811,0.1321 0.29212,0.3986 0.50508,0.5051 0.15058,0.075 0.38603,-0.1191 0.50508,0 0.11904,0.119 -0.11905,0.386 0,0.5051 0.11904,0.119 0.35449,-0.075 0.50507,0 2.31154,1.1557 -2.14325,-0.2094 1.51523,1.0101 0.15972,0.053 0.35449,-0.075 0.50508,0 0.21296,0.1065 0.2792,0.4298 0.50507,0.5051 0.31944,0.1065 0.70899,-0.1506 1.01016,0 0.15058,0.075 -0.11905,0.386 0,0.5051 1.97117,1.9711 0.27125,-0.117 1.51522,0.505 2.10201,1.051 -0.53994,-0.035 0.50508,1.0102 0.11905,0.119 0.35449,-0.075 0.50508,0 0.21296,0.1065 0.30697,0.373 0.50507,0.5051 0.31324,0.2088 0.74396,0.2388 1.01016,0.505 0.11904,0.1191 -0.11905,0.3861 0,0.5051 0.11904,0.1191 0.38602,-0.119 0.50507,0 0.11905,0.1191 -0.15058,0.4298 0,0.5051 0.30117,0.1506 0.70899,-0.1506 1.01015,0 0.15059,0.075 -0.11904,0.386 0,0.5051 0.2381,0.2381 0.70899,-0.1506 1.01016,0 0.21296,0.1064 0.29211,0.3986 0.50507,0.505 0.15059,0.075 0.38603,-0.119 0.50508,0 0.61517,0.6152 0.23659,1.1285 1.01015,1.5153 1.34687,0 -0.16836,-0.1684 0.50508,0.5051 0.11905,0.119 0.38603,-0.1191 0.50508,0 0.11904,0.119 -0.11905,0.386 0,0.505 0.23809,0.2381 0.70898,-0.1506 1.01015,0 2.102,1.051 -0.53995,-0.035 0.50507,1.0102 0.11905,0.119 0.3545,-0.075 0.50508,0 0.60609,0.303 0.90914,1.2122 1.51523,1.5152 0.15058,0.075 0.38603,-0.119 0.50508,0 0,1.3469 -0.16836,-0.1684 0.50507,0.5051 0.11905,0.119 -0.11905,0.386 0,0.5051 0.11905,0.119 0.35449,-0.075 0.50508,0 0.21296,0.1064 0.33672,0.3367 0.50507,0.505 0.16836,0.1684 0.3986,0.2922 0.50508,0.5051 0.0753,0.1506 -0.11905,0.386 0,0.5051 0.11905,0.119 0.38603,-0.1191 0.50508,0 0.11904,0.119 -0.11905,0.386 0,0.5051 0.11904,0.119 0.38603,-0.1191 0.50507,0 0.11905,0.119 -0.0753,0.3545 0,0.505 0.62413,1.2483 46.89874,31.5882 46.89874,32.7727"
       id="path8578"
       inkscape:connector-curvature="0"
       transform="matrix(1.2272579,-0.2244736,0.17921943,0.97984115,-305.31084,132.96663)"
       sodipodi:nodetypes="cccccccccccccccccccccccsssccsccccccccsccsccsccsssscccccccsccccsccccccccccccccccccccsssssccccccccccccccccccccccccccccccccscccccccccccccccccccccccccccccccc" />
    <path
       style="fill:none;stroke:#0055d4;stroke-width:1px;stroke-linecap:butt;stroke-linejoin:miter;stroke-opacity:1;filter:url(#filter8602)"
       d="m 624.27427,651.21065 c -0.0688,-0.7926 5.31613,-0.38522 5.55584,-0.50507 0.21296,-0.10648 0.29212,-0.3986 0.50507,-0.50508 0.15059,-0.0753 0.33672,0 0.50508,0 0.33672,0 0.69071,0.10648 1.01015,0 0.22588,-0.0753 0.29212,-0.3986 0.50508,-0.50508 0.30117,-0.15058 0.69071,0.10648 1.01015,0 0.35714,-0.11904 0.67344,-0.33671 1.01015,-0.50507 0.33672,-0.16836 0.74396,-0.23888 1.01016,-0.50508 0.11904,-0.11905 -0.11905,-0.38603 0,-0.50507 0.11904,-0.11905 0.38603,0.11904 0.50507,0 0.11905,-0.11905 -0.11904,-0.38603 0,-0.50508 0.11905,-0.11905 0.38603,0.11905 0.50508,0 0.11905,-0.11905 -0.11905,-0.38603 0,-0.50508 0.11905,-0.11905 0.33672,0 0.50508,0 0,-0.16836 -0.11905,-0.38603 0,-0.50507 0.23809,-0.2381 0.77205,0.23809 1.01015,0 0.11905,-0.11905 -0.11905,-0.38603 0,-0.50508 0.11905,-0.11905 0.33672,0 0.50507,0 0.26982,0 2.38083,0.0723 2.52539,0 0.21295,-0.10648 0.2792,-0.42978 0.50507,-0.50508 0.002,-7.6e-4 1.51475,4.9e-4 1.51523,0 0.11905,-0.11904 -0.11905,-0.38602 0,-0.50507 0.11905,-0.11905 0.33672,0 0.50508,0 0.16836,0 0.33671,0 0.50507,0 1.85195,0 3.7039,0 5.55584,0 0.48853,0 2.88066,-0.0749 3.03046,0 0.21296,0.10648 0.27409,0.44733 0.50508,0.50507 0.48999,0.1225 1.02523,-0.1225 1.51523,0 0.23098,0.0578 0.29211,0.3986 0.50507,0.50508 0.30117,0.15058 0.70898,-0.15058 1.01015,0 0.42592,0.21296 0.61394,0.74601 1.01016,1.01015 0.33671,0.16836 0.67343,0.33672 1.01015,0.50508 0.16836,0 0.35449,-0.0753 0.50508,0 0.21295,0.10648 0.29211,0.3986 0.50507,0.50508 0.30117,0.15058 0.82338,-0.28017 1.01015,0 0.29533,0.44298 0.26699,1.03903 0.50508,1.51522 1.051,2.10201 -0.0349,-0.53994 1.01015,0.50508 0.11905,0.11905 -0.11904,0.38603 0,0.50508 0.2662,0.26619 0.69692,0.29625 1.01016,0.50507 0.1981,0.13207 0.27919,0.42979 0.50507,0.50508 0.31944,0.10648 0.70899,-0.15059 1.01015,0 0.42592,0.21296 0.61394,0.74601 1.01016,1.01015 0.14008,0.0934 0.35449,-0.0753 0.50507,0 0.21296,0.10648 0.33672,0.33672 0.50508,0.50508 0.33672,0 0.69071,-0.10648 1.01015,0 0.45176,0.15058 0.61394,0.74601 1.01015,1.01015 0.31324,0.20882 0.64494,0.41377 1.01016,0.50508 0.0169,0.004 1.51254,-0.003 1.51523,0 0.11904,0.11904 -0.11905,0.38603 0,0.50507 0.11904,0.11905 0.33671,0 0.50507,0 0.8418,0 1.68359,0 2.52538,0 1.85195,0 3.7039,0 5.55584,0 0.26982,0 2.38083,0.0723 2.52538,0 0.21296,-0.10648 0.29212,-0.39859 0.50508,-0.50507 0.45175,-0.22588 1.06348,0.22587 1.51523,0 1.34687,-0.67344 -1.51523,-0.50508 0.50508,-0.50508"
       id="path8592"
       inkscape:connector-curvature="0"
       transform="translate(0,372.36218)" />
    <path
       style="fill:none;stroke:#0055d4;stroke-width:1px;stroke-linecap:butt;stroke-linejoin:miter;stroke-opacity:1;filter:url(#filter8616)"
       d="m 592.95954,643.12943 c 0.33672,0.67344 0.5584,1.41797 1.01015,2.02031 0.10102,0.13468 0.38603,-0.11905 0.50508,0 0.11905,0.11905 -0.0532,0.34535 0,0.50507 0.11905,0.35715 0.29625,0.69692 0.50508,1.01016 0.26414,0.39621 0.85956,0.55839 1.01015,1.01015 0,2.29925 -0.2381,0.0289 0.50507,1.51523 0.0753,0.15058 -0.11904,0.38603 0,0.50507 0.11905,0.11905 0.42979,-0.15058 0.50508,0 0.15059,0.30117 -0.0817,0.68349 0,1.01016 0.0913,0.36522 0.38603,0.65301 0.50508,1.01015 0.0532,0.15972 -0.0753,0.35449 0,0.50508 0.10648,0.21295 0.39859,0.29211 0.50507,0.50507 0.16374,0.32747 -0.15861,2.55462 0,3.03046 0.11905,0.35714 0.38603,0.65301 0.50508,1.01015 0.0532,0.15972 -0.0753,0.35449 0,0.50508 0.27147,0.54294 0.73868,0.97229 1.01015,1.51523 0.0753,0.15058 -0.0532,0.34535 0,0.50507 1.21949,3.65848 -0.14561,-0.7963 1.01015,1.51523 0.0753,0.15059 -0.11904,0.38603 0,0.50508 0.11905,0.11905 0.33672,0 0.50508,0 0.33672,0 0.70898,-0.15059 1.01015,0 0.15059,0.0753 -0.11904,0.38603 0,0.50507 0.11905,0.11905 0.33672,0 0.50508,0 0.33672,0 0.70898,-0.15058 1.01015,0 0.15059,0.0753 -0.11905,0.38603 0,0.50508 0.11905,0.11905 0.33672,0 0.50508,0 0.16836,0 0.33672,0 0.50507,0 0.4309,0 3.34788,-0.0938 3.53554,0 0.21296,0.10648 0.29212,0.3986 0.50507,0.50508 0.18266,0.0913 2.17409,0 2.52539,0 2.0203,0 4.04061,0 6.06091,0 1.17851,0 2.35702,0 3.53554,0 0.16835,0 0.33671,0 0.50507,0 0.16836,0 0.38603,-0.11905 0.50508,0 0.11905,0.11904 -0.11905,0.38603 0,0.50507 0.12153,0.12154 1.89877,-0.12153 2.0203,0 0.11905,0.11905 -0.11904,0.38603 0,0.50508 0.2381,0.23809 0.77206,-0.2381 1.01016,0 0.11904,0.11905 -0.11905,0.38603 0,0.50508 0.33684,0.33684 0.67331,-0.33685 1.01015,0 0.11905,0.11904 -0.11905,0.38602 0,0.50507 0.16649,0.16649 1.65481,-0.12183 2.0203,0 0.38325,0.12775 1.55612,1.78821 2.02031,2.02031 0.15058,0.0753 0.38603,-0.11905 0.50507,0 0.11905,0.11904 -0.11904,0.38603 0,0.50507 0.11905,0.11905 0.3545,-0.0753 0.50508,0 0.60609,0.30305 0.90914,1.21219 1.51523,1.51523 0.15058,0.0753 0.33672,0 0.50508,0 0.16835,0.16836 0.30696,0.37301 0.50507,0.50508 0.31324,0.20882 0.65301,0.38603 1.01015,0.50507 0.15972,0.0532 0.38603,-0.11904 0.50508,0 0.11905,0.11905 -0.11905,0.38603 0,0.50508 0.2381,0.2381 0.77206,-0.23809 1.01015,0 0.2662,0.2662 0.23888,0.74395 0.50508,1.01015 0.23809,0.2381 0.70898,-0.15058 1.01015,0 0.21296,0.10648 0.29212,0.3986 0.50508,0.50508 0.40406,0.20203 1.11117,-0.20203 1.51523,0 0.21296,0.10648 0.29211,0.3986 0.50507,0.50508 0.30117,0.15058 0.77206,-0.2381 1.01016,0 0.11904,0.11904 -0.15059,0.42978 0,0.50507 0.30117,0.15059 0.67343,0 1.01015,0 0.16836,0 0.38603,-0.11905 0.50507,0 0.11905,0.11905 -0.11904,0.38603 0,0.50508 0.13504,0.13503 2.20321,-0.16109 2.52539,0 0.21296,0.10648 0.2792,0.42978 0.50507,0.50507 0.47916,0.15972 1.01016,0 1.51523,0 0.8418,0 1.68359,0 2.52538,0 2.52538,0 5.05077,0 7.57615,0 1.85194,0 3.70389,0 5.55584,0 0.40302,0 2.22236,-0.101 2.52538,0 0.35714,0.11905 0.65301,0.38603 1.01015,0.50508 0.31944,0.10648 0.69071,-0.10648 1.01015,0 0.33672,0.16836 0.67344,0.33672 1.01015,0.50508 0,0.16836 -0.11904,0.38603 0,0.50507 0.2381,0.2381 0.77206,-0.23809 1.01016,0 0.11904,0.11905 -0.11905,0.38603 0,0.50508 0.11904,0.11905 0.34535,-0.0532 0.50507,0 3.65848,1.21949 -0.7963,-0.14562 1.51523,1.01015 1.01015,0.50508 0,-1.01015 1.51523,0 0.31324,0.20883 0.23888,0.74396 0.50508,1.01015 0.11904,0.11905 0.35449,-0.0753 0.50507,0 0.21296,0.10648 0.29212,0.3986 0.50508,0.50508 0.15058,0.0753 0.38603,-0.11905 0.50508,0 0.11904,0.11905 -0.11905,0.38603 0,0.50508 1.04502,1.04502 -0.0408,-1.59693 1.01015,0.50507 0.0753,0.15059 -0.0753,0.3545 0,0.50508 0.10648,0.21296 0.42978,0.2792 0.50507,0.50508 0.13944,0.41831 -0.16059,2.20418 0,2.52538 0.10648,0.21296 0.3986,0.29212 0.50508,0.50507 0.0723,0.14456 0,2.25557 0,2.52539 0,0.4285 -0.0838,2.69535 0,3.03045 0.58037,2.32148 0.50508,0.1146 0.50508,1.51523"
       id="path8606"
       inkscape:connector-curvature="0"
       transform="translate(0,372.36218)" />
    <path
       style="fill:none;stroke:#0055d4;stroke-width:1px;stroke-linecap:butt;stroke-linejoin:miter;stroke-opacity:1;filter:url(#filter8622)"
       d="m 383.35289,653.73603 c -1.5309,-0.72175 -0.0471,-2.11448 -0.50508,-3.03045 -0.21296,-0.42592 -0.74601,-0.61394 -1.01015,-1.01016 -0.0934,-0.14008 0.0934,-0.36499 0,-0.50507 -0.26414,-0.39622 -0.72444,-0.6292 -1.01015,-1.01015 -0.22588,-0.30117 -0.2792,-0.70899 -0.50508,-1.01016 -0.28571,-0.38095 -0.76515,-0.60182 -1.01015,-1.01015 -1.54001,-0.35755 -0.19464,-1.39943 -0.50508,-2.02031 -0.21296,-0.42591 -0.79719,-0.58423 -1.01015,-1.01015 -0.23553,-0.47106 0.45214,-0.77085 -0.50508,-1.01015 -0.48999,-0.1225 -1.01996,0.0991 -1.51523,0 -2.03248,-0.4065 -0.23205,-0.36857 -1.51522,-1.01015 -0.40407,-0.20203 -1.11117,0.20203 -1.51523,0 -0.21296,-0.10648 -0.29212,-0.3986 -0.50508,-0.50508 -0.14455,-0.0723 -2.25556,0 -2.52538,0 -1.68359,0 -3.36718,0 -5.05076,0 -0.12002,0 -1.90711,0.0566 -2.02031,0 -0.21296,-0.10648 -0.2792,-0.42978 -0.50507,-0.50508 -0.002,-7.6e-4 -1.51475,4.9e-4 -1.51523,0 -0.11905,-0.11904 0.11904,-0.38602 0,-0.50507 -0.2381,-0.2381 -0.77206,0.23809 -1.01016,0 -0.11904,-0.11905 0.0753,-0.35449 0,-0.50508 -0.21295,-0.42592 -0.79719,-0.58423 -1.01015,-1.01015 -0.0753,-0.15059 0.11905,-0.38603 0,-0.50508 -0.11905,-0.11904 -0.38603,0.11905 -0.50507,0 -0.13555,-0.13554 0.11857,-1.66458 0,-2.0203 -0.16836,-0.33672 -0.33672,-0.67344 -0.50508,-1.01015 -0.16836,0 -0.42979,0.15058 -0.50508,0 -0.15058,-0.30117 0,-0.67344 0,-1.01016 0,-0.16836 0.11905,-0.38603 0,-0.50507 -0.11905,-0.11905 -0.38603,0.11904 -0.50507,0 -0.2381,-0.2381 0.10648,-0.69072 0,-1.01016 -0.16836,-0.33671 -0.33672,-0.67343 -0.50508,-1.01015 -0.16836,0 -0.38603,0.11905 -0.50508,0 -0.23809,-0.23809 0.15059,-0.70898 0,-1.01015 -0.10648,-0.21296 -0.39859,-0.29212 -0.50507,-0.50508 -0.0753,-0.15058 0.0753,-0.35449 0,-0.50507 -0.10648,-0.21296 -0.33672,-0.33672 -0.50508,-0.50508 -0.16836,-0.16836 -0.29212,-0.3986 -0.50508,-0.50508 -0.15058,-0.0753 -0.38602,0.11905 -0.50507,0 -0.11905,-0.11904 0.11905,-0.38602 0,-0.50507 -1.04502,-1.04502 0.0409,1.59693 -1.01015,-0.50508 -0.0753,-0.15058 0.11904,-0.38603 0,-0.50507 -0.2381,-0.2381 -0.77206,0.23809 -1.01016,0 -0.11904,-0.11905 0.11905,-0.38603 0,-0.50508 -0.11904,-0.11905 -0.34535,0.0532 -0.50507,0 -0.35715,-0.11905 -0.65301,-0.38603 -1.01016,-0.50508 -0.75761,-0.25254 -0.50507,0.50508 -1.51522,0 -0.15059,-0.0753 0.15058,-0.42978 0,-0.50507 -0.30223,-0.15112 -2.71567,0.15739 -3.03046,0 -0.21296,-0.10648 -0.29212,-0.3986 -0.50508,-0.50508 -0.21571,-0.10785 -2.32572,0 -2.52538,0"
       id="path8620"
       inkscape:connector-curvature="0"
       transform="translate(0,372.36218)" />
    <path
       style="fill:none;stroke:#0055d4;stroke-width:1px;stroke-linecap:butt;stroke-linejoin:miter;stroke-opacity:1;filter:url(#filter8640)"
       d="m 393.95949,653.73603 c 2.46185,1.90594 1.95903,-1.15808 3.03046,-1.51522 0.31944,-0.10648 0.69071,0.10647 1.01015,0 0.22588,-0.0753 0.30697,-0.37301 0.50508,-0.50508 0.31323,-0.20882 0.69691,-0.29625 1.01015,-0.50508 0.19811,-0.13207 0.33672,-0.33671 0.50508,-0.50507 0.16835,-0.16836 0.373,-0.30697 0.50507,-0.50508 0.20883,-0.31323 0.29625,-0.69692 0.50508,-1.01015 0.13207,-0.19811 0.39859,-0.29212 0.50507,-0.50508 0.0753,-0.15058 -0.0753,-0.35449 0,-0.50507 0.10648,-0.21296 0.3986,-0.29212 0.50508,-0.50508 0.0753,-0.15059 -0.11905,-0.38603 0,-0.50508 0.11905,-0.11905 0.38603,0.11905 0.50508,0 0.11904,-0.11905 -0.0753,-0.35449 0,-0.50507 0.30304,-0.6061 1.21218,-0.90914 1.51523,-1.51523 0.23809,-0.47619 0.37595,-0.99873 0.50507,-1.51523 0.0457,-0.18259 0.0505,-2.37396 0,-2.52538 -0.67343,-2.02031 -0.16836,-0.16836 -1.51523,-1.51523 -0.11904,-0.11905 0.11905,-0.38603 0,-0.50508 -0.11904,-0.11905 -0.38603,0.11905 -0.50507,0 -0.11905,-0.11905 0.11904,-0.38603 0,-0.50507 -0.2662,-0.2662 -0.74396,-0.23888 -1.01016,-0.50508 -0.26619,-0.2662 -0.29625,-0.69692 -0.50507,-1.01015 -0.13207,-0.19811 -0.3986,-0.29212 -0.50508,-0.50508 -0.0753,-0.15058 0.11905,-0.38603 0,-0.50508 -0.11905,-0.11904 -0.42978,0.15059 -0.50507,0 -0.15059,-0.30116 0.15058,-0.70898 0,-1.01015 -0.0753,-0.15058 -0.38603,0.11905 -0.50508,0 -0.0784,-0.0784 0.0655,-1.31869 0,-1.51523 -0.16836,-0.33671 -0.33672,-0.67343 -0.50508,-1.01015 -0.16836,0 -0.38603,0.11905 -0.50507,0 -0.11905,-0.11905 0,-0.33672 0,-0.50508 0,-0.33671 0.15058,-0.70898 0,-1.01015 -0.0753,-0.15058 -0.38603,0.11905 -0.50508,0 -0.23809,-0.23809 0.10648,-0.69071 0,-1.01015 -0.11905,-0.35714 -0.29625,-0.69692 -0.50508,-1.01015 -0.13207,-0.19811 -0.42978,-0.2792 -0.50507,-0.50508 -0.10648,-0.31944 0.15058,-0.70898 0,-1.01015 -0.0753,-0.15059 -0.38603,0.11905 -0.50508,0 -0.11905,-0.11905 0.11905,-0.38603 0,-0.50508 -0.11905,-0.11905 -0.38603,0.11905 -0.50507,0 -1.04503,-1.04502 1.59693,0.0408 -0.50508,-1.01015 -0.15059,-0.0753 -0.38603,0.11905 -0.50508,0 -0.11904,-0.11905 0.11905,-0.38603 0,-0.50508 -0.11904,-0.11904 -0.35449,0.0753 -0.50507,0 -0.21296,-0.10648 -0.29212,-0.39859 -0.50508,-0.50507 -0.69668,-0.34834 -0.45178,0.61167 -1.01015,-0.50508 -0.0751,-0.15025 0,-2.81799 0,-3.03046"
       id="path8626"
       inkscape:connector-curvature="0"
       transform="translate(0,372.36218)" />
    <path
       sodipodi:type="arc"
       style="fill:#cccccc;stroke:none;filter:url(#filter3849)"
       id="path3023"
       sodipodi:cx="-20"
       sodipodi:cy="665"
       sodipodi:rx="170"
       sodipodi:ry="85"
       d="m 150,665 c 0,46.9442 -76.111593,85 -170,85 -93.88841,0 -170,-38.0558 -170,-85 0,-46.9442 76.11159,-85 170,-85 93.888407,0 170,38.0558 170,85 z"
       transform="matrix(1,0,0,0.64705882,0,607.06806)" />
    <path
       transform="matrix(1,0,0,0.64705882,1060,612.06806)"
       d="m 150,665 c 0,46.9442 -76.111593,85 -170,85 -93.88841,0 -170,-38.0558 -170,-85 0,-46.9442 76.11159,-85 170,-85 93.888407,0 170,38.0558 170,85 z"
       sodipodi:ry="85"
       sodipodi:rx="170"
       sodipodi:cy="665"
       sodipodi:cx="-20"
       id="path3853"
       style="fill:#cccccc;stroke:none;filter:url(#filter3849)"
       sodipodi:type="arc" />
    <path
       transform="matrix(2.6470588,0,0,0.64705882,602.94118,567.06806)"
       d="m 150,665 c 0,46.9442 -76.111593,85 -170,85 -93.88841,0 -170,-38.0558 -170,-85 0,-46.9442 76.11159,-85 170,-85 93.888407,0 170,38.0558 170,85 z"
       sodipodi:ry="85"
       sodipodi:rx="170"
       sodipodi:cy="665"
       sodipodi:cx="-20"
       id="path3855"
       style="fill:#cccccc;stroke:none;filter:url(#filter3929)"
       sodipodi:type="arc" />
  </g>
</svg>
