<?xml version="1.0" encoding="UTF-8" standalone="no"?>
<!-- Created with Inkscape (http://www.inkscape.org/) -->

<svg
   xmlns:dc="http://purl.org/dc/elements/1.1/"
   xmlns:cc="http://creativecommons.org/ns#"
   xmlns:rdf="http://www.w3.org/1999/02/22-rdf-syntax-ns#"
   xmlns:svg="http://www.w3.org/2000/svg"
   xmlns="http://www.w3.org/2000/svg"
   xmlns:sodipodi="http://sodipodi.sourceforge.net/DTD/sodipodi-0.dtd"
   xmlns:inkscape="http://www.inkscape.org/namespaces/inkscape"
   width="180"
   height="45"
   id="svg7159"
   version="1.1"
   inkscape:version="0.48.2 r9819"
   inkscape:export-filename="/Users/aaron/416/project2/images/pman.png"
   inkscape:export-xdpi="90"
   inkscape:export-ydpi="90"
   sodipodi:docname="New document 7">
  <defs
     id="defs7161" />
  <sodipodi:namedview
     id="base"
     pagecolor="#ffffff"
     bordercolor="#666666"
     borderopacity="1.0"
     inkscape:pageopacity="0.0"
     inkscape:pageshadow="2"
     inkscape:zoom="3.959798"
     inkscape:cx="138.73231"
     inkscape:cy="19.97449"
     inkscape:document-units="px"
     inkscape:current-layer="layer1"
     showgrid="true"
     showguides="false"
     inkscape:snap-global="false"
     inkscape:window-width="1771"
     inkscape:window-height="934"
     inkscape:window-x="117"
     inkscape:window-y="3"
     inkscape:window-maximized="0">
    <inkscape:grid
       type="xygrid"
       id="grid7167"
       empspacing="5"
       visible="true"
       enabled="true"
       snapvisiblegridlinesonly="true" />
  </sodipodi:namedview>
  <metadata
     id="metadata7164">
    <rdf:RDF>
      <cc:Work
         rdf:about="">
        <dc:format>image/svg+xml</dc:format>
        <dc:type
           rdf:resource="http://purl.org/dc/dcmitype/StillImage" />
        <dc:title></dc:title>
      </cc:Work>
    </rdf:RDF>
  </metadata>
  <g
     inkscape:label="Layer 1"
     inkscape:groupmode="layer"
     id="layer1"
     transform="translate(0,-1007.3622)">
    <g
       id="g7755"
       transform="matrix(0.99585164,0,0,1,7.499986,-3.5073547e-4)">
      <path
         sodipodi:nodetypes="cc"
         inkscape:connector-curvature="0"
         id="path7171"
         d="m 0.06277445,1025.0645 c 9.16148735,-20.7661 18.93875255,-26.27888 29.99945055,0"
         style="fill:#ff0000;stroke:none" />
      <path
         sodipodi:nodetypes="cc"
         inkscape:connector-curvature="0"
         id="path7173"
         d="M 0.06277445,1025.0645 15.0625,1035.1749"
         style="fill:none;stroke:#000000;stroke-width:0.10054934;stroke-linecap:butt;stroke-linejoin:miter;stroke-miterlimit:4;stroke-opacity:1;stroke-dasharray:none" />
      <path
         sodipodi:nodetypes="cc"
         inkscape:connector-curvature="0"
         id="path7175"
         d="M 30.062225,1025.0645 15.0625,1035.1749"
         style="fill:none;stroke:#000000;stroke-width:0.10054934;stroke-linecap:butt;stroke-linejoin:miter;stroke-miterlimit:4;stroke-opacity:1;stroke-dasharray:none" />
      <path
         sodipodi:nodetypes="cc"
         inkscape:connector-curvature="0"
         id="path7685"
         d="m 15.0625,1025.0645 0,10.1104"
         style="fill:none;stroke:#000000;stroke-width:0.10054934;stroke-linecap:butt;stroke-linejoin:miter;stroke-miterlimit:4;stroke-opacity:1;stroke-dasharray:none" />
      <path
         transform="matrix(0.9999817,0,0,1.0110355,-6.9370975,1006.3604)"
         d="M 25,30.5 C 25,31.880712 23.880712,33 22.5,33 21.119288,33 20,31.880712 20,30.5 20,29.119288 21.119288,28 22.5,28 c 1.380712,0 2.5,1.119288 2.5,2.5 z"
         sodipodi:ry="2.5"
         sodipodi:rx="2.5"
         sodipodi:cy="30.5"
         sodipodi:cx="22.5"
         id="path7687"
         style="fill:#d38d5f;fill-opacity:1;stroke:none"
         sodipodi:type="arc" />
      <rect
         y="1040.23"
         x="13.062536"
         height="6.0662131"
         width="4.9999084"
         id="rect7689"
         style="fill:#d38d5f;fill-opacity:1;stroke:none" />
      <rect
         y="1047.3074"
         x="13.062536"
         height="5.0551777"
         width="1.9999634"
         id="rect7691"
         style="fill:#d38d5f;fill-opacity:1;stroke:none" />
      <rect
         y="1047.3074"
         x="16.062481"
         height="5.0551777"
         width="1.9999634"
         id="rect7693"
         style="fill:#d38d5f;fill-opacity:1;stroke:none" />
      <rect
         y="1040.23"
         x="7.0626464"
         height="1.0110356"
         width="4.9999084"
         id="rect7695"
         style="fill:#d38d5f;fill-opacity:1;stroke:none" />
      <rect
         style="fill:#d38d5f;fill-opacity:1;stroke:none"
         id="rect7697"
         width="4.9999084"
         height="1.0110356"
         x="19.062428"
         y="1040.23" />
      <path
         transform="matrix(0.06383725,0,0,0.31572357,14.538238,1029.3678)"
         d="M 24,29.5 C 24,30.328427 20.418278,31 16,31 11.581722,31 8,30.328427 8,29.5 8,28.671573 11.581722,28 16,28 c 4.418278,0 8,0.671573 8,1.5 z"
         sodipodi:ry="1.5"
         sodipodi:rx="8"
         sodipodi:cy="29.5"
         sodipodi:cx="16"
         id="path7701"
         style="fill:#000000;fill-opacity:1;stroke:none"
         sodipodi:type="arc" />
      <path
         sodipodi:type="arc"
         style="fill:#000000;fill-opacity:1;stroke:none"
         id="path7705"
         sodipodi:cx="30.312468"
         sodipodi:cy="29.359529"
         sodipodi:rx="0.37091538"
         sodipodi:ry="0.18940361"
         d="m 30.683383,29.359529 c 0,0.104605 -0.166065,0.189404 -0.370915,0.189404 -0.204851,0 -0.370916,-0.0848 -0.370916,-0.189404 0,-0.104604 0.166065,-0.189403 0.370916,-0.189403 0.20485,0 0.370915,0.0848 0.370915,0.189403 z"
         transform="matrix(1.0212579,0,0,1.2637944,-16.287657,999.3333)" />
      <path
         transform="matrix(1.0212579,0,0,1.2637944,-14.519922,999.31735)"
         d="m 30.683383,29.359529 c 0,0.104605 -0.166065,0.189404 -0.370915,0.189404 -0.204851,0 -0.370916,-0.0848 -0.370916,-0.189404 0,-0.104604 0.166065,-0.189403 0.370916,-0.189403 0.20485,0 0.370915,0.0848 0.370915,0.189403 z"
         sodipodi:ry="0.18940361"
         sodipodi:rx="0.37091538"
         sodipodi:cy="29.359529"
         sodipodi:cx="30.312468"
         id="path7707"
         style="fill:#000000;fill-opacity:1;stroke:none"
         sodipodi:type="arc" />
      <path
         inkscape:transform-center-y="-0.086475343"
         inkscape:transform-center-x="0.053797583"
         transform="matrix(-0.78269049,0.24564395,0.02522405,-1.2996365,34.713419,1069.8892)"
         d="m 25.459001,30.259197 -0.111315,-0.630212 0.601437,0.218704 z"
         inkscape:randomized="0"
         inkscape:rounded="0"
         inkscape:flatsided="true"
         sodipodi:arg2="2.9667649"
         sodipodi:arg1="1.9195673"
         sodipodi:r2="0.18474269"
         sodipodi:r1="0.36948538"
         sodipodi:cy="29.911957"
         sodipodi:cx="25.58527"
         sodipodi:sides="3"
         id="path7709"
         style="fill:#000000;fill-opacity:1;stroke:none"
         sodipodi:type="star" />
    </g>
    <g
       id="g7785"
       transform="matrix(0.99297144,0,0,0.99583341,0.08090688,4.3535147)">
      <path
         style="fill:#ff0000;stroke:none"
         d="m 63.064372,1044.7997 c -20.913128,-9.1617 -26.464874,-18.9391 0,-30"
         id="path7711"
         inkscape:connector-curvature="0"
         sodipodi:nodetypes="cc" />
      <path
         style="fill:none;stroke:#000000;stroke-width:0.10090544;stroke-linecap:butt;stroke-linejoin:miter;stroke-miterlimit:4;stroke-opacity:1;stroke-dasharray:none"
         d="m 63.064372,1044.7997 10.181907,-15"
         id="path7713"
         inkscape:connector-curvature="0"
         sodipodi:nodetypes="cc" />
      <path
         style="fill:none;stroke:#000000;stroke-width:0.10090544;stroke-linecap:butt;stroke-linejoin:miter;stroke-miterlimit:4;stroke-opacity:1;stroke-dasharray:none"
         d="m 63.064372,1014.7997 10.181907,15"
         id="path7715"
         inkscape:connector-curvature="0"
         sodipodi:nodetypes="cc" />
      <path
         style="fill:none;stroke:#000000;stroke-width:0.10090544;stroke-linecap:butt;stroke-linejoin:miter;stroke-miterlimit:4;stroke-opacity:1;stroke-dasharray:none"
         d="m 63.064372,1029.7997 10.181907,0"
         id="path7717"
         inkscape:connector-curvature="0"
         sodipodi:nodetypes="cc" />
      <path
         sodipodi:type="arc"
         style="fill:#d38d5f;fill-opacity:1;stroke:none"
         id="path7719"
         sodipodi:cx="22.5"
         sodipodi:cy="30.5"
         sodipodi:rx="2.5"
         sodipodi:ry="2.5"
         d="M 25,30.5 C 25,31.880712 23.880712,33 22.5,33 21.119288,33 20,31.880712 20,30.5 20,29.119288 21.119288,28 22.5,28 c 1.380712,0 2.5,1.119288 2.5,2.5 z"
         transform="matrix(0,-1,1.0181907,0,44.227844,1051.7997)" />
      <rect
         transform="matrix(0,-1,1,0,0,0)"
         style="fill:#d38d5f;fill-opacity:1;stroke:none"
         id="rect7721"
         width="5"
         height="6.1091442"
         x="-1031.7997"
         y="78.33728" />
      <rect
         transform="matrix(0,-1,1,0,0,0)"
         style="fill:#d38d5f;fill-opacity:1;stroke:none"
         id="rect7723"
         width="2"
         height="5.0909534"
         x="-1031.7997"
         y="85.464615" />
      <rect
         transform="matrix(0,-1,1,0,0,0)"
         style="fill:#d38d5f;fill-opacity:1;stroke:none"
         id="rect7725"
         width="2"
         height="5.0909534"
         x="-1028.7997"
         y="85.464615" />
      <rect
         transform="matrix(0.82836769,-0.56018477,0.56018477,0.82836769,0,0)"
         style="fill:#d38d5f;fill-opacity:1;stroke:none"
         id="rect7727"
         width="5"
         height="1.0181907"
         x="-518.89648"
         y="900.19183" />
      <rect
         transform="matrix(-0.66934153,-0.74295486,0.74295486,-0.66934153,0,0)"
         y="-628.12714"
         x="-814.40515"
         height="1.0181907"
         width="5"
         id="rect7729"
         style="fill:#d38d5f;fill-opacity:1;stroke:none" />
      <path
         sodipodi:type="arc"
         style="fill:#000000;fill-opacity:1;stroke:none"
         id="path7731"
         sodipodi:cx="16"
         sodipodi:cy="29.5"
         sodipodi:rx="8"
         sodipodi:ry="1.5"
         d="M 24,29.5 C 24,30.328427 20.418278,31 16,31 11.581722,31 8,30.328427 8,29.5 8,28.671573 11.581722,28 16,28 c 4.418278,0 8,0.671573 8,1.5 z"
         transform="matrix(0,-0.06383842,0.31795796,0,67.398097,1030.324)" />
      <path
         transform="matrix(0,-1.0212766,1.2727384,0,37.151052,1061.1504)"
         d="m 30.683383,29.359529 c 0,0.104605 -0.166065,0.189404 -0.370915,0.189404 -0.204851,0 -0.370916,-0.0848 -0.370916,-0.189404 0,-0.104604 0.166065,-0.189403 0.370916,-0.189403 0.20485,0 0.370915,0.0848 0.370915,0.189403 z"
         sodipodi:ry="0.18940361"
         sodipodi:rx="0.37091538"
         sodipodi:cy="29.359529"
         sodipodi:cx="30.312468"
         id="path7733"
         style="fill:#000000;fill-opacity:1;stroke:none"
         sodipodi:type="arc" />
      <path
         sodipodi:type="arc"
         style="fill:#000000;fill-opacity:1;stroke:none"
         id="path7735"
         sodipodi:cx="30.312468"
         sodipodi:cy="29.359529"
         sodipodi:rx="0.37091538"
         sodipodi:ry="0.18940361"
         d="m 30.683383,29.359529 c 0,0.104605 -0.166065,0.189404 -0.370915,0.189404 -0.204851,0 -0.370916,-0.0848 -0.370916,-0.189404 0,-0.104604 0.166065,-0.189403 0.370916,-0.189403 0.20485,0 0.370915,0.0848 0.370915,0.189403 z"
         transform="matrix(0,-1.0212766,1.2727384,0,37.134964,1059.3826)" />
      <path
         sodipodi:type="star"
         style="fill:#000000;fill-opacity:1;stroke:none"
         id="path7737"
         sodipodi:sides="3"
         sodipodi:cx="25.58527"
         sodipodi:cy="29.911957"
         sodipodi:r1="0.36948538"
         sodipodi:r2="0.18474269"
         sodipodi:arg1="1.9195673"
         sodipodi:arg2="2.9667649"
         inkscape:flatsided="true"
         inkscape:rounded="0"
         inkscape:randomized="0"
         d="m 25.459001,30.259197 -0.111315,-0.630212 0.601437,0.218704 z"
         transform="matrix(0.24738239,0.78270481,-1.3088342,-0.02522451,108.20626,1010.1484)"
         inkscape:transform-center-x="0.053798143"
         inkscape:transform-center-y="-0.085595595" />
    </g>
    <g
       transform="matrix(-0.99585164,0,0,-1,127.5,2059.7246)"
       id="g7801">
      <path
         style="fill:#ff0000;stroke:none"
         d="m 0.06277445,1025.0645 c 9.16148735,-20.7661 18.93875255,-26.27888 29.99945055,0"
         id="path7803"
         inkscape:connector-curvature="0"
         sodipodi:nodetypes="cc" />
      <path
         style="fill:none;stroke:#000000;stroke-width:0.10054934;stroke-linecap:butt;stroke-linejoin:miter;stroke-miterlimit:4;stroke-opacity:1;stroke-dasharray:none"
         d="M 0.06277445,1025.0645 15.0625,1035.1749"
         id="path7805"
         inkscape:connector-curvature="0"
         sodipodi:nodetypes="cc" />
      <path
         style="fill:none;stroke:#000000;stroke-width:0.10054934;stroke-linecap:butt;stroke-linejoin:miter;stroke-miterlimit:4;stroke-opacity:1;stroke-dasharray:none"
         d="M 30.062225,1025.0645 15.0625,1035.1749"
         id="path7807"
         inkscape:connector-curvature="0"
         sodipodi:nodetypes="cc" />
      <path
         style="fill:none;stroke:#000000;stroke-width:0.10054934;stroke-linecap:butt;stroke-linejoin:miter;stroke-miterlimit:4;stroke-opacity:1;stroke-dasharray:none"
         d="m 15.0625,1025.0645 0,10.1104"
         id="path7809"
         inkscape:connector-curvature="0"
         sodipodi:nodetypes="cc" />
      <path
         sodipodi:type="arc"
         style="fill:#d38d5f;fill-opacity:1;stroke:none"
         id="path7811"
         sodipodi:cx="22.5"
         sodipodi:cy="30.5"
         sodipodi:rx="2.5"
         sodipodi:ry="2.5"
         d="M 25,30.5 C 25,31.880712 23.880712,33 22.5,33 21.119288,33 20,31.880712 20,30.5 20,29.119288 21.119288,28 22.5,28 c 1.380712,0 2.5,1.119288 2.5,2.5 z"
         transform="matrix(0.9999817,0,0,1.0110355,-6.9370975,1006.3604)" />
      <rect
         style="fill:#d38d5f;fill-opacity:1;stroke:none"
         id="rect7813"
         width="4.9999084"
         height="6.0662131"
         x="13.062536"
         y="1040.23" />
      <rect
         style="fill:#d38d5f;fill-opacity:1;stroke:none"
         id="rect7815"
         width="1.9999634"
         height="5.0551777"
         x="13.062536"
         y="1047.3074" />
      <rect
         style="fill:#d38d5f;fill-opacity:1;stroke:none"
         id="rect7817"
         width="1.9999634"
         height="5.0551777"
         x="16.062481"
         y="1047.3074" />
      <rect
         style="fill:#d38d5f;fill-opacity:1;stroke:none"
         id="rect7819"
         width="4.9999084"
         height="1.0110356"
         x="7.0626464"
         y="1040.23" />
      <rect
         y="1040.23"
         x="19.062428"
         height="1.0110356"
         width="4.9999084"
         id="rect7821"
         style="fill:#d38d5f;fill-opacity:1;stroke:none" />
      <path
         sodipodi:type="arc"
         style="fill:#000000;fill-opacity:1;stroke:none"
         id="path7823"
         sodipodi:cx="16"
         sodipodi:cy="29.5"
         sodipodi:rx="8"
         sodipodi:ry="1.5"
         d="M 24,29.5 C 24,30.328427 20.418278,31 16,31 11.581722,31 8,30.328427 8,29.5 8,28.671573 11.581722,28 16,28 c 4.418278,0 8,0.671573 8,1.5 z"
         transform="matrix(0.06383725,0,0,0.31572357,14.538238,1029.3678)" />
      <path
         transform="matrix(1.0212579,0,0,1.2637944,-16.287657,999.3333)"
         d="m 30.683383,29.359529 c 0,0.104605 -0.166065,0.189404 -0.370915,0.189404 -0.204851,0 -0.370916,-0.0848 -0.370916,-0.189404 0,-0.104604 0.166065,-0.189403 0.370916,-0.189403 0.20485,0 0.370915,0.0848 0.370915,0.189403 z"
         sodipodi:ry="0.18940361"
         sodipodi:rx="0.37091538"
         sodipodi:cy="29.359529"
         sodipodi:cx="30.312468"
         id="path7825"
         style="fill:#000000;fill-opacity:1;stroke:none"
         sodipodi:type="arc" />
      <path
         sodipodi:type="arc"
         style="fill:#000000;fill-opacity:1;stroke:none"
         id="path7827"
         sodipodi:cx="30.312468"
         sodipodi:cy="29.359529"
         sodipodi:rx="0.37091538"
         sodipodi:ry="0.18940361"
         d="m 30.683383,29.359529 c 0,0.104605 -0.166065,0.189404 -0.370915,0.189404 -0.204851,0 -0.370916,-0.0848 -0.370916,-0.189404 0,-0.104604 0.166065,-0.189403 0.370916,-0.189403 0.20485,0 0.370915,0.0848 0.370915,0.189403 z"
         transform="matrix(1.0212579,0,0,1.2637944,-14.519922,999.31735)" />
      <path
         sodipodi:type="star"
         style="fill:#000000;fill-opacity:1;stroke:none"
         id="path7829"
         sodipodi:sides="3"
         sodipodi:cx="25.58527"
         sodipodi:cy="29.911957"
         sodipodi:r1="0.36948538"
         sodipodi:r2="0.18474269"
         sodipodi:arg1="1.9195673"
         sodipodi:arg2="2.9667649"
         inkscape:flatsided="true"
         inkscape:rounded="0"
         inkscape:randomized="0"
         d="m 25.459001,30.259197 -0.111315,-0.630212 0.601437,0.218704 z"
         transform="matrix(-0.78269049,0.24564395,0.02522405,-1.2996365,34.713419,1069.8892)"
         inkscape:transform-center-x="0.053797583"
         inkscape:transform-center-y="-0.086475343" />
    </g>
    <g
       id="g7877">
      <path
         sodipodi:nodetypes="cc"
         inkscape:connector-curvature="0"
         id="path7833"
         d="m 162.29797,1014.925 c 20.76614,9.1235 26.27886,18.8601 0,29.875"
         style="fill:#ff0000;stroke:none" />
      <path
         sodipodi:nodetypes="cc"
         inkscape:connector-curvature="0"
         id="path7835"
         d="m 162.29797,1014.925 -10.11034,14.9375"
         style="fill:none;stroke:#000000;stroke-width:0.10034051;stroke-linecap:butt;stroke-linejoin:miter;stroke-miterlimit:4;stroke-opacity:1;stroke-dasharray:none" />
      <path
         sodipodi:nodetypes="cc"
         inkscape:connector-curvature="0"
         id="path7837"
         d="m 162.29797,1044.8 -10.11034,-14.9375"
         style="fill:none;stroke:#000000;stroke-width:0.10034051;stroke-linecap:butt;stroke-linejoin:miter;stroke-miterlimit:4;stroke-opacity:1;stroke-dasharray:none" />
      <path
         sodipodi:nodetypes="cc"
         inkscape:connector-curvature="0"
         id="path7839"
         d="m 162.29797,1029.8625 -10.11034,0"
         style="fill:none;stroke:#000000;stroke-width:0.10034051;stroke-linecap:butt;stroke-linejoin:miter;stroke-miterlimit:4;stroke-opacity:1;stroke-dasharray:none" />
      <path
         transform="matrix(0,0.99583341,-1.0110343,0,181.0021,1007.9541)"
         d="m 25,30.5 a 2.5,2.5 0 1 1 -5,0 2.5,2.5 0 1 1 5,0 z"
         sodipodi:ry="2.5"
         sodipodi:rx="2.5"
         sodipodi:cy="30.5"
         sodipodi:cx="22.5"
         id="path7841"
         style="fill:#d38d5f;fill-opacity:1;stroke:none"
         sodipodi:type="arc" />
      <rect
         y="-147.1324"
         x="1027.8708"
         height="6.0662055"
         width="4.979167"
         id="rect7843"
         style="fill:#d38d5f;fill-opacity:1;stroke:none"
         transform="matrix(0,1,-1,0,0,0)" />
      <rect
         y="-140.05518"
         x="1027.8708"
         height="5.0551715"
         width="1.9916668"
         id="rect7845"
         style="fill:#d38d5f;fill-opacity:1;stroke:none"
         transform="matrix(0,1,-1,0,0,0)" />
      <rect
         y="-140.05518"
         x="1030.8583"
         height="5.0551715"
         width="1.9916668"
         id="rect7847"
         style="fill:#d38d5f;fill-opacity:1;stroke:none"
         transform="matrix(0,1,-1,0,0,0)" />
      <rect
         y="730.29816"
         x="732.87756"
         height="1.0130348"
         width="4.9693522"
         id="rect7849"
         style="fill:#d38d5f;fill-opacity:1;stroke:none"
         transform="matrix(0.7979409,0.60273569,-0.60486489,0.79632811,0,0)" />
      <path
         transform="matrix(0,0.06357243,-0.31572317,0,157.9947,1029.3403)"
         d="m 24,29.5 a 8,1.5 0 1 1 -16,0 8,1.5 0 1 1 16,0 z"
         sodipodi:ry="1.5"
         sodipodi:rx="8"
         sodipodi:cy="29.5"
         sodipodi:cx="16"
         id="path7853"
         style="fill:#000000;fill-opacity:1;stroke:none"
         sodipodi:type="arc" />
      <path
         sodipodi:type="arc"
         style="fill:#000000;fill-opacity:1;stroke:none"
         id="path7855"
         sodipodi:cx="30.312468"
         sodipodi:cy="29.359529"
         sodipodi:rx="0.37091538"
         sodipodi:ry="0.18940361"
         d="m 30.683383,29.359529 a 0.37091538,0.18940361 0 1 1 -0.741831,0 0.37091538,0.18940361 0 1 1 0.741831,0 z"
         transform="matrix(0,1.0170214,-1.2637929,0,188.02916,998.64238)" />
      <path
         transform="matrix(0,1.0170214,-1.2637929,0,188.04513,1000.4028)"
         d="m 30.683383,29.359529 a 0.37091538,0.18940361 0 1 1 -0.741831,0 0.37091538,0.18940361 0 1 1 0.741831,0 z"
         sodipodi:ry="0.18940361"
         sodipodi:rx="0.37091538"
         sodipodi:cy="29.359529"
         sodipodi:cx="30.312468"
         id="path7857"
         style="fill:#000000;fill-opacity:1;stroke:none"
         sodipodi:type="arc" />
      <path
         inkscape:transform-center-y="-0.085595595"
         inkscape:transform-center-x="0.053798143"
         transform="matrix(-0.24564365,-0.7794436,1.299635,0.02511941,117.47336,1049.4319)"
         d="m 25.459001,30.259197 -0.111315,-0.630212 0.601437,0.218704 z"
         inkscape:randomized="0"
         inkscape:rounded="0"
         inkscape:flatsided="true"
         sodipodi:arg2="2.9667649"
         sodipodi:arg1="1.9195673"
         sodipodi:r2="0.18474269"
         sodipodi:r1="0.36948538"
         sodipodi:cy="29.911957"
         sodipodi:cx="25.58527"
         sodipodi:sides="3"
         id="path7859"
         style="fill:#000000;fill-opacity:1;stroke:none"
         sodipodi:type="star" />
      <rect
         transform="matrix(0.60273569,-0.7979409,0.79632811,0.60486489,0,0)"
         style="fill:#d38d5f;fill-opacity:1;stroke:none"
         id="rect7875"
         width="4.9693522"
         height="1.0130348"
         x="-739.78607"
         y="739.75677" />
    </g>
  </g>
</svg>
